<svg width="26" height="26" viewBox="0 0 26 26" fill="none" xmlns="http://www.w3.org/2000/svg">
<path d="M17.1655 20.4049C17.1655 18.9692 17.1554 17.6669 17.1731 16.3621C17.1731 16.0395 17.1022 15.9398 16.7635 15.9449C13.8644 15.9601 10.9652 15.9542 8.06524 15.9525C6.91589 15.9525 6.26562 15.2988 6.26562 14.1494C6.26562 10.0258 6.26562 5.9022 6.26562 1.7786C6.26562 0.636782 6.89562 0 8.0264 0C13.2623 0 18.4981 0 23.734 0C24.929 0 25.5387 0.618202 25.5387 1.82505C25.5387 5.92022 25.5176 10.0171 25.553 14.1105C25.5632 15.2034 24.793 15.9972 23.6875 15.9601C22.5821 15.9229 21.4919 15.9601 20.394 15.9424C20.1272 15.9424 19.9718 16.0133 19.8231 16.2489C18.9736 17.6044 18.1021 18.9464 17.1655 20.4049ZM11.3385 4.56135C11.3385 5.15929 11.3537 5.67952 11.3326 6.19807C11.3188 6.31325 11.3398 6.42994 11.3929 6.53306C11.446 6.63618 11.5289 6.721 11.6307 6.77658C12.9532 7.65321 14.2678 8.54166 15.5745 9.44194C15.805 9.60156 15.9537 9.61845 16.1867 9.44954C16.7948 9.00954 17.4265 8.605 18.1088 8.14388C18.1088 9.14973 18.1173 10.0737 18.1038 10.9967C18.1038 11.2501 18.1536 11.3464 18.4263 11.3346C18.9744 11.3126 19.5242 11.3092 20.0723 11.3346C20.3805 11.3481 20.4388 11.2391 20.4371 10.9511C20.4236 9.05176 20.4303 7.15071 20.4303 5.25387V4.5926C20.3546 4.62569 20.2807 4.6629 20.2091 4.70408C18.8942 5.59169 17.5709 6.46832 16.272 7.37873C15.9815 7.58227 15.8 7.57973 15.5171 7.3838C14.1591 6.44552 12.7809 5.53004 11.3385 4.56135ZM11.3385 7.45896C11.3385 8.72577 11.3436 9.89884 11.3343 11.0744C11.3343 11.2813 11.4027 11.3362 11.6003 11.3329C12.1914 11.3219 12.7826 11.3219 13.3678 11.3329C13.5578 11.3329 13.6414 11.2991 13.6372 11.0795C13.6229 10.463 13.6372 9.84563 13.6372 9.22827C13.6372 9.0999 13.6313 8.99096 13.5013 8.90566C12.8045 8.44623 12.1129 7.97582 11.3427 7.45896H11.3385Z" fill="white"/>
<path d="M11.2032 25.9996C10.4888 24.8882 9.83937 23.8798 9.19164 22.8748C8.58614 21.9298 7.97557 20.9873 7.38189 20.0347C7.33804 19.9494 7.26959 19.8793 7.18543 19.8333C7.10126 19.7874 7.00525 19.7678 6.90982 19.7771C5.41844 19.7864 3.92622 19.7517 2.434 19.7906C1.04311 19.8261 -0.0150392 18.6986 0.000161721 17.3566C0.041542 13.15 0.0136755 8.94334 0.017898 4.73669C0.017898 3.27987 0.964574 2.34327 2.41711 2.34074C3.06399 2.34074 3.71256 2.36861 4.35944 2.33229C4.75467 2.30949 4.81716 2.46235 4.81547 2.81115C4.80309 6.69602 4.79858 10.5786 4.80196 14.459C4.79172 14.8239 4.8315 15.1885 4.92019 15.5426C5.1634 16.4226 5.75371 16.8854 6.66492 16.8862C9.73128 16.8862 12.7985 16.8955 15.8648 16.8803C16.2136 16.8803 16.2744 16.9876 16.2643 17.3026C16.2432 17.9909 16.2423 18.6817 16.2643 19.37C16.2753 19.6867 16.2043 19.7923 15.8598 19.7923C14.4537 19.7703 13.0459 19.7923 11.6373 19.7745C11.2995 19.7695 11.188 19.832 11.1923 20.1968C11.2151 21.9551 11.2024 23.7143 11.2015 25.4726L11.2032 25.9996Z" fill="white"/>
<path d="M11.2032 25.9996C10.4888 24.8882 9.83937 23.8798 9.19164 22.8748C8.58614 21.9298 7.97557 20.9873 7.38189 20.0347C7.33804 19.9494 7.26959 19.8793 7.18543 19.8333C7.10126 19.7874 7.00525 19.7678 6.90982 19.7771C5.41844 19.7864 3.92622 19.7517 2.434 19.7906C1.04311 19.8261 -0.0150392 18.6986 0.000161721 17.3566C0.041542 13.15 0.0136755 8.94334 0.017898 4.73669C0.017898 3.27987 0.964574 2.34327 2.41711 2.34074C3.06399 2.34074 3.71256 2.36861 4.35944 2.33229C4.75467 2.30949 4.81716 2.46235 4.81547 2.81115C4.80309 6.69602 4.79858 10.5786 4.80196 14.459C4.79172 14.8239 4.8315 15.1885 4.92019 15.5426C5.1634 16.4226 5.75371 16.8854 6.66492 16.8862C9.73128 16.8862 12.7985 16.8955 15.8648 16.8803C16.2136 16.8803 16.2744 16.9876 16.2643 17.3026C16.2432 17.9909 16.2423 18.6817 16.2643 19.37C16.2753 19.6867 16.2043 19.7923 15.8598 19.7923C14.4537 19.7703 13.0459 19.7923 11.6373 19.7745C11.2995 19.7695 11.188 19.832 11.1923 20.1968C11.2151 21.9551 11.2024 23.7143 11.2015 25.4726L11.2032 25.9996Z" fill="black" fill-opacity="0.06"/>
<path d="M18.4834 19.7773C19.0957 18.8171 19.6758 17.9126 20.2501 17.0047C20.3345 16.8679 20.4595 16.8899 20.5828 16.8899C21.2584 16.8899 21.934 16.8991 22.6096 16.8831C22.8537 16.8772 22.906 16.9616 22.9102 17.193C22.9423 18.8129 22.0108 19.7756 20.3903 19.7773H18.4834Z" fill="white"/>
<path d="M18.4834 19.7773C19.0957 18.8171 19.6758 17.9126 20.2501 17.0047C20.3345 16.8679 20.4595 16.8899 20.5828 16.8899C21.2584 16.8899 21.934 16.8991 22.6096 16.8831C22.8537 16.8772 22.906 16.9616 22.9102 17.193C22.9423 18.8129 22.0108 19.7756 20.3903 19.7773H18.4834Z" fill="black" fill-opacity="0.06"/>
</svg>
