<svg width="92" height="26" viewBox="0 0 92 26" fill="none" xmlns="http://www.w3.org/2000/svg">
<path d="M17.1655 20.4049C17.1655 18.9692 17.1554 17.6669 17.1731 16.3621C17.1731 16.0395 17.1022 15.9398 16.7635 15.9449C13.8644 15.9601 10.9652 15.9542 8.06524 15.9525C6.91589 15.9525 6.26562 15.2988 6.26562 14.1494C6.26562 10.0258 6.26562 5.9022 6.26562 1.7786C6.26562 0.636782 6.89562 0 8.0264 0C13.2623 0 18.4981 0 23.734 0C24.929 0 25.5387 0.618202 25.5387 1.82505C25.5387 5.92022 25.5176 10.0171 25.553 14.1105C25.5632 15.2034 24.793 15.9972 23.6875 15.9601C22.5821 15.9229 21.4919 15.9601 20.394 15.9424C20.1272 15.9424 19.9718 16.0133 19.8231 16.2489C18.9736 17.6044 18.1021 18.9464 17.1655 20.4049ZM11.3385 4.56135C11.3385 5.15929 11.3537 5.67952 11.3326 6.19807C11.3188 6.31325 11.3398 6.42994 11.3929 6.53306C11.446 6.63618 11.5289 6.721 11.6307 6.77658C12.9532 7.65321 14.2678 8.54166 15.5745 9.44194C15.805 9.60156 15.9537 9.61845 16.1867 9.44954C16.7948 9.00954 17.4265 8.605 18.1088 8.14388C18.1088 9.14973 18.1173 10.0737 18.1038 10.9967C18.1038 11.2501 18.1536 11.3464 18.4263 11.3346C18.9744 11.3126 19.5242 11.3092 20.0723 11.3346C20.3805 11.3481 20.4388 11.2391 20.4371 10.9511C20.4236 9.05176 20.4303 7.15071 20.4303 5.25387V4.5926C20.3546 4.62569 20.2807 4.6629 20.2091 4.70408C18.8942 5.59169 17.5709 6.46832 16.272 7.37873C15.9815 7.58227 15.8 7.57973 15.5171 7.3838C14.1591 6.44552 12.7809 5.53004 11.3385 4.56135ZM11.3385 7.45896C11.3385 8.72577 11.3436 9.89884 11.3343 11.0744C11.3343 11.2813 11.4027 11.3362 11.6003 11.3329C12.1914 11.3219 12.7826 11.3219 13.3678 11.3329C13.5578 11.3329 13.6414 11.2991 13.6372 11.0795C13.6229 10.463 13.6372 9.84563 13.6372 9.22827C13.6372 9.0999 13.6313 8.99096 13.5013 8.90566C12.8045 8.44623 12.1129 7.97582 11.3427 7.45896H11.3385Z" fill="#0F98A0"/>
<path d="M11.2032 25.9999C10.4888 24.8885 9.83937 23.8801 9.19164 22.8751C8.58614 21.9301 7.97557 20.9875 7.38189 20.0349C7.33804 19.9496 7.26959 19.8795 7.18543 19.8336C7.10126 19.7877 7.00525 19.7681 6.90982 19.7773C5.41844 19.7866 3.92622 19.752 2.434 19.7908C1.04311 19.8263 -0.0150392 18.6989 0.000161721 17.3569C0.041542 13.1502 0.0136755 8.94358 0.017898 4.73694C0.017898 3.28011 0.964574 2.34352 2.41711 2.34098C3.06399 2.34098 3.71256 2.36885 4.35944 2.33254C4.75467 2.30973 4.81716 2.4626 4.81547 2.81139C4.80309 6.69627 4.79858 10.5789 4.80196 14.4593C4.79172 14.8241 4.8315 15.1887 4.92019 15.5428C5.1634 16.4228 5.75371 16.8856 6.66492 16.8865C9.73128 16.8865 12.7985 16.8958 15.8648 16.8806C16.2136 16.8806 16.2744 16.9878 16.2643 17.3028C16.2432 17.9911 16.2423 18.682 16.2643 19.3703C16.2753 19.687 16.2043 19.7925 15.8598 19.7925C14.4537 19.7706 13.0459 19.7925 11.6373 19.7748C11.2995 19.7697 11.188 19.8322 11.1923 20.1971C11.2151 21.9554 11.2024 23.7146 11.2015 25.4729L11.2032 25.9999Z" fill="#0F98A0"/>
<path d="M11.2032 25.9999C10.4888 24.8885 9.83937 23.8801 9.19164 22.8751C8.58614 21.9301 7.97557 20.9875 7.38189 20.0349C7.33804 19.9496 7.26959 19.8795 7.18543 19.8336C7.10126 19.7877 7.00525 19.7681 6.90982 19.7773C5.41844 19.7866 3.92622 19.752 2.434 19.7908C1.04311 19.8263 -0.0150392 18.6989 0.000161721 17.3569C0.041542 13.1502 0.0136755 8.94358 0.017898 4.73694C0.017898 3.28011 0.964574 2.34352 2.41711 2.34098C3.06399 2.34098 3.71256 2.36885 4.35944 2.33254C4.75467 2.30973 4.81716 2.4626 4.81547 2.81139C4.80309 6.69627 4.79858 10.5789 4.80196 14.4593C4.79172 14.8241 4.8315 15.1887 4.92019 15.5428C5.1634 16.4228 5.75371 16.8856 6.66492 16.8865C9.73128 16.8865 12.7985 16.8958 15.8648 16.8806C16.2136 16.8806 16.2744 16.9878 16.2643 17.3028C16.2432 17.9911 16.2423 18.682 16.2643 19.3703C16.2753 19.687 16.2043 19.7925 15.8598 19.7925C14.4537 19.7706 13.0459 19.7925 11.6373 19.7748C11.2995 19.7697 11.188 19.8322 11.1923 20.1971C11.2151 21.9554 11.2024 23.7146 11.2015 25.4729L11.2032 25.9999Z" fill="black" fill-opacity="0.06"/>
<path d="M18.4844 19.7783C19.0966 18.8181 19.6768 17.9136 20.2511 17.0057C20.3355 16.8689 20.4605 16.8908 20.5838 16.8908C21.2594 16.8908 21.935 16.9001 22.6106 16.8841C22.8546 16.8782 22.907 16.9626 22.9112 17.194C22.9433 18.8138 22.0118 19.7766 20.3912 19.7783H18.4844Z" fill="#0F98A0"/>
<path d="M18.4844 19.7783C19.0966 18.8181 19.6768 17.9136 20.2511 17.0057C20.3355 16.8689 20.4605 16.8908 20.5838 16.8908C21.2594 16.8908 21.935 16.9001 22.6106 16.8841C22.8546 16.8782 22.907 16.9626 22.9112 17.194C22.9433 18.8138 22.0118 19.7766 20.3912 19.7783H18.4844Z" fill="black" fill-opacity="0.06"/>
<path d="M11.3382 4.56128C12.7738 5.52996 14.1554 6.44544 15.5167 7.38457C15.7996 7.5805 15.9812 7.58304 16.2717 7.3795C17.5706 6.46909 18.8897 5.59246 20.2088 4.70485C20.2804 4.66367 20.3543 4.62646 20.43 4.59337V5.25464C20.43 7.15317 20.4233 9.05507 20.4368 10.9519C20.4368 11.2399 20.3802 11.3488 20.0719 11.3353C19.5239 11.31 18.9741 11.3134 18.426 11.3353C18.1533 11.3463 18.0992 11.2466 18.1034 10.9975C18.1169 10.0744 18.1085 9.1505 18.1085 8.14466C17.4261 8.60493 16.7945 9.01031 16.1864 9.45031C15.9533 9.61922 15.8047 9.60233 15.5742 9.44271C14.2686 8.54187 12.954 7.65342 11.6304 6.77735C11.5285 6.72177 11.4457 6.63695 11.3926 6.53383C11.3394 6.43071 11.3184 6.31402 11.3323 6.19884C11.3568 5.67945 11.3382 5.16259 11.3382 4.56128Z" fill="white"/>
<path d="M11.3388 7.45898C12.109 7.97584 12.8006 8.44625 13.499 8.90652C13.6291 8.99098 13.6358 9.10077 13.635 9.22914C13.635 9.84649 13.6232 10.4639 13.635 11.0804C13.6392 11.2974 13.5556 11.3337 13.3656 11.3337C12.7744 11.3244 12.1833 11.3244 11.5981 11.3337C11.4004 11.3337 11.3312 11.2822 11.332 11.0753C11.3439 9.89886 11.3388 8.72326 11.3388 7.45898Z" fill="white"/>
<path d="M29.5 17.1739C29.2239 17.1739 29 16.9501 29 16.6739V5.5C29 5.22386 29.2239 5 29.5 5H31.8399C32.031 5 32.2054 5.10896 32.2892 5.28074L35.6345 12.1366C35.6711 12.2117 35.7781 12.2115 35.8144 12.1363L39.1258 5.28248C39.2093 5.10975 39.3842 5 39.5761 5H41.8971C42.1732 5 42.3971 5.22386 42.3971 5.5V16.6739C42.3971 16.9501 42.1732 17.1739 41.8971 17.1739H40.2702C39.994 17.1739 39.7702 16.9501 39.7702 16.6739V9.82645C39.7702 9.72077 39.6276 9.68733 39.5806 9.782L36.8959 15.1918C36.8114 15.362 36.6379 15.4696 36.448 15.4696H34.9658C34.7763 15.4696 34.6031 15.3624 34.5184 15.1929L31.8163 9.77959C31.7692 9.68514 31.6269 9.71869 31.6269 9.82425V16.6739C31.6269 16.9501 31.403 17.1739 31.1269 17.1739H29.5Z" fill="#404040"/>
<path d="M49.0591 17.3826C48.1484 17.3826 47.3487 17.1971 46.6599 16.8261C45.971 16.4435 45.4281 15.9159 45.0312 15.2435C44.6459 14.5594 44.4533 13.7768 44.4533 12.8957C44.4533 11.9913 44.6459 11.1855 45.0312 10.4783C45.4165 9.77101 45.9535 9.21449 46.6423 8.8087C47.3312 8.4029 48.1309 8.2 49.0416 8.2C49.9289 8.2 50.7052 8.3913 51.3707 8.77391C52.0362 9.15652 52.5557 9.67826 52.9293 10.3391C53.3146 10.9884 53.5072 11.742 53.5072 12.6C53.5072 12.7159 53.5014 12.8493 53.4897 13C53.4897 13.0027 53.4897 13.0054 53.4897 13.0081C53.4889 13.2547 53.2728 13.4348 53.0262 13.4348H46.3271V11.9217H50.8278C50.8045 11.4348 50.6235 11.0464 50.2849 10.7565C49.958 10.4551 49.5494 10.3043 49.0591 10.3043C48.6855 10.3043 48.3469 10.3913 48.0433 10.5652C47.7398 10.7391 47.4946 11 47.3078 11.3478C47.1327 11.6957 47.0451 12.1362 47.0451 12.6696V13.1913C47.0451 13.5971 47.121 13.9565 47.2728 14.2696C47.4362 14.5826 47.6639 14.8261 47.9558 15C48.2593 15.1739 48.6154 15.2609 49.024 15.2609C49.4093 15.2609 49.7245 15.1855 49.9697 15.0348C50.1382 14.9283 50.2816 14.8043 50.3999 14.6629C50.5146 14.5257 50.6754 14.4261 50.8543 14.4261H52.5766C52.9103 14.4261 53.15 14.7484 53.0028 15.0479C52.8471 15.3646 52.6475 15.6617 52.404 15.9391C52.007 16.3797 51.5225 16.7333 50.9504 17C50.3783 17.2551 49.7479 17.3826 49.0591 17.3826Z" fill="#404040"/>
<path d="M59.7821 17.3826C58.8714 17.3826 58.0717 17.1971 57.3828 16.8261C56.694 16.4435 56.1511 15.9159 55.7542 15.2435C55.3689 14.5594 55.1763 13.7768 55.1763 12.8957C55.1763 11.9913 55.3689 11.1855 55.7542 10.4783C56.1395 9.77101 56.6765 9.21449 57.3653 8.8087C58.0542 8.4029 58.8539 8.2 59.7645 8.2C60.6518 8.2 61.4282 8.3913 62.0937 8.77391C62.7592 9.15652 63.2787 9.67826 63.6523 10.3391C64.0376 10.9884 64.2302 11.742 64.2302 12.6C64.2302 12.7159 64.2244 12.8493 64.2127 13C64.2127 13.0027 64.2127 13.0054 64.2127 13.0081C64.2119 13.2547 63.9958 13.4348 63.7492 13.4348H57.0501V11.9217H61.5508C61.5275 11.4348 61.3465 11.0464 61.0079 10.7565C60.681 10.4551 60.2724 10.3043 59.7821 10.3043C59.4085 10.3043 59.0699 10.3913 58.7663 10.5652C58.4628 10.7391 58.2176 11 58.0308 11.3478C57.8557 11.6957 57.7681 12.1362 57.7681 12.6696V13.1913C57.7681 13.5971 57.844 13.9565 57.9958 14.2696C58.1592 14.5826 58.3869 14.8261 58.6788 15C58.9823 15.1739 59.3384 15.2609 59.747 15.2609C60.1323 15.2609 60.4475 15.1855 60.6927 15.0348C60.8612 14.9283 61.0046 14.8043 61.1229 14.6629C61.2376 14.5257 61.3984 14.4261 61.5773 14.4261H63.2996C63.6333 14.4261 63.8729 14.7484 63.7258 15.0479C63.5701 15.3646 63.3705 15.6617 63.1269 15.9391C62.73 16.3797 62.2455 16.7333 61.6734 17C61.1013 17.2551 60.4709 17.3826 59.7821 17.3826Z" fill="#404040"/>
<path d="M70.2265 17.1739C69.5844 17.1739 69.0181 17.0754 68.5278 16.8783C68.0374 16.6696 67.658 16.3333 67.3895 15.8696C67.1209 15.4058 66.9867 14.7739 66.9867 13.9739V10.6826C66.9867 10.6274 66.9419 10.5826 66.8867 10.5826H65.9806C65.7045 10.5826 65.4806 10.3588 65.4806 10.0826V8.9087C65.4806 8.63255 65.7045 8.4087 65.9806 8.4087H66.8974C66.9482 8.4087 66.991 8.37051 66.9967 8.31997L67.2165 6.38276C67.2452 6.13005 67.459 5.93913 67.7133 5.93913H69.1135C69.3897 5.93913 69.6135 6.16299 69.6135 6.43913V8.3087C69.6135 8.36392 69.6583 8.4087 69.7135 8.4087H71.3727C71.6488 8.4087 71.8727 8.63255 71.8727 8.9087V10.0826C71.8727 10.3588 71.6488 10.5826 71.3727 10.5826H69.7135C69.6583 10.5826 69.6135 10.6274 69.6135 10.6826V14.0087C69.6135 14.3565 69.6894 14.6058 69.8412 14.7565C70.0047 14.8957 70.279 14.9652 70.6643 14.9652H71.3727C71.6488 14.9652 71.8727 15.1891 71.8727 15.4652V16.6739C71.8727 16.9501 71.6488 17.1739 71.3727 17.1739H70.2265Z" fill="#404040"/>
<path d="M73.8142 17.1739C73.538 17.1739 73.3142 16.9501 73.3142 16.6739V15.2876C73.3142 15.1588 73.3638 15.035 73.4529 14.942L77.478 10.7343C77.5388 10.6707 77.4937 10.5652 77.4057 10.5652H73.8667C73.5905 10.5652 73.3667 10.3414 73.3667 10.0652V8.9087C73.3667 8.63255 73.5905 8.4087 73.8667 8.4087H80.1519C80.428 8.4087 80.6519 8.63255 80.6519 8.9087V10.2938C80.6519 10.4233 80.6017 10.5477 80.5118 10.6409L76.4547 14.848C76.3934 14.9115 76.4384 15.0174 76.5266 15.0174H80.2395C80.5156 15.0174 80.7395 15.2412 80.7395 15.5174V16.6739C80.7395 16.9501 80.5156 17.1739 80.2395 17.1739H73.8142Z" fill="#404040"/>
<path fill-rule="evenodd" clip-rule="evenodd" d="M85.0871 15.4808L85.6164 16.6137C85.6646 16.7168 85.6639 16.8361 85.6146 16.9386L84.1315 20.2981C83.9856 20.6286 84.2277 21 84.5889 21H86.2764C86.4764 21 86.6572 20.8808 86.736 20.6969L91.7015 9.10558C91.8428 8.77566 91.6008 8.4087 91.2419 8.4087H89.5252C89.3177 8.4087 89.1317 8.53691 89.0579 8.73089L87.2342 13.5241C87.2026 13.6071 87.0866 13.6108 87.0497 13.53L84.8482 8.70127C84.7669 8.52306 84.5891 8.4087 84.3932 8.4087H82.638C82.274 8.4087 82.032 8.78514 82.1831 9.11625L85.0871 15.4808Z" fill="#404040"/>
</svg>
